<?xml version="1.0" encoding="UTF-8"?>
<svg xmlns="http://www.w3.org/2000/svg" width="1600" height="900" viewBox="0 0 1600 900" fill="none">
  <defs>
    <linearGradient id="bg" x1="70" y1="62" x2="1518" y2="844" gradientUnits="userSpaceOnUse">
      <stop stop-color="#5a2d43"/>
      <stop offset="0.55" stop-color="#b2515e"/>
      <stop offset="1" stop-color="#f3b37c"/>
    </linearGradient>
    <radialGradient id="glowA" cx="0" cy="0" r="1" gradientUnits="userSpaceOnUse" gradientTransform="translate(1089 112) rotate(51) scale(327 268.14)">
      <stop stop-color="rgba(255,255,255,0.44)"/>
      <stop offset="1" stop-color="rgba(255,255,255,0)"/>
    </radialGradient>
    <radialGradient id="glowB" cx="0" cy="0" r="1" gradientUnits="userSpaceOnUse" gradientTransform="translate(1390 764) rotate(180) scale(440 300)">
      <stop stop-color="rgba(8,12,16,0.28)"/>
      <stop offset="1" stop-color="rgba(8,12,16,0)"/>
    </radialGradient>
    <filter id="shadow" x="0" y="0" width="1600" height="900" filterUnits="userSpaceOnUse">
      <feDropShadow dx="0" dy="24" stdDeviation="36" flood-color="rgba(5, 12, 18, 0.24)"/>
    </filter>
  </defs>

  <rect width="1600" height="900" rx="44" fill="url(#bg)"/>
  <rect width="1600" height="900" rx="44" fill="url(#glowA)"/>
  <rect width="1600" height="900" rx="44" fill="url(#glowB)"/>

  <g opacity="0.16">
    <path d="M-42 686C161 554 313 550 451 618c126 62 248 61 388-6 164-79 296-86 425-29 128 58 255 59 378-5V900H-42V686z" fill="rgba(255, 240, 204, 0.24)"/>
    <path d="M-10 741C145 653 289 646 404 694c140 59 268 56 401-16 160-86 327-98 495-30 110 44 214 49 320 13V900H-10V741z" fill="rgba(255,255,255,0.08)"/>
  </g>

  <g opacity="0.12">
    <path d="M104 0V900" stroke="white" stroke-width="1"/><path d="M312 0V900" stroke="white" stroke-width="1"/><path d="M520 0V900" stroke="white" stroke-width="1"/><path d="M728 0V900" stroke="white" stroke-width="1"/><path d="M936 0V900" stroke="white" stroke-width="1"/><path d="M1144 0V900" stroke="white" stroke-width="1"/><path d="M1352 0V900" stroke="white" stroke-width="1"/>
    <path d="M0 132H1600" stroke="white" stroke-width="1"/><path d="M0 272H1600" stroke="white" stroke-width="1"/><path d="M0 412H1600" stroke="white" stroke-width="1"/><path d="M0 552H1600" stroke="white" stroke-width="1"/><path d="M0 692H1600" stroke="white" stroke-width="1"/>
  </g>

  <g filter="url(#shadow)">
    <rect x="90" y="116" width="744" height="624" rx="38" fill="rgba(15, 16, 22, 0.18)"/>
    <rect x="90" y="116" width="744" height="624" rx="38" stroke="rgba(255,255,255,0.12)"/>
  </g>

  <g transform="translate(0 0) rotate(7 1204 436)">
    <circle cx="1236" cy="338" r="198" fill="rgba(255,255,255,0.08)"/>
    <circle cx="1126" cy="484" r="174" fill="rgba(255,255,255,0.05)"/>
  </g>

  
      <g opacity="0.24">
        <path d="M980 250c48-28 131-42 194-42 94 0 168 28 226 76v326c-58-48-132-76-226-76-63 0-146 14-194 42z" fill="rgba(255, 240, 204, 0.24)"/>
        <path d="M938 248c-48-28-131-42-194-42-94 0-168 28-226 76v326c58-48 132-76 226-76 63 0 146 14 194 42z" fill="rgba(255, 240, 204, 0.24)"/>
        <path d="M938 248v328" stroke="#fff0cc" stroke-width="8" stroke-linecap="round"/>
      </g>
      <g opacity="0.08">
        <path d="M616 327h206M616 386h206M616 445h176" stroke="#fffaf4" stroke-width="12" stroke-linecap="round"/>
        <path d="M1033 327h206M1033 386h206M1033 445h176" stroke="#fffaf4" stroke-width="12" stroke-linecap="round"/>
      </g>
    

  <g>
    <rect x="126" y="152" rx="16" ry="16" width="272" height="44" fill="rgba(255, 255, 255, 0.12)"/>
    <text x="150" y="180" font-size="21" font-family="'Avenir Next', 'PingFang SC', sans-serif" fill="rgba(255, 250, 244, 0.78)">阅读 / 观影</text>
  </g>

  <text x="126" y="350" font-size="74" font-weight="700" letter-spacing="1.2" font-family="'PingFang SC', 'Microsoft YaHei', sans-serif" fill="#fffaf4">
    <tspan x="126" y="350">小编今天去看了自己心心念念的姜子牙</tspan><tspan x="126" y="446">，依旧记得预告片中所说\&quot;用你自己</tspan><tspan x="126" y="542">的方式，去成为一个真正的神！\&quot;</tspan>
  </text>

  <text x="126" y="668" font-size="28" font-family="'Avenir Next', 'PingFang SC', sans-serif" fill="rgba(255, 250, 244, 0.78)">
    阅读与观影 · 书评 · 随笔
  </text>
  <text x="126" y="730" font-size="24" font-family="'Avenir Next', 'PingFang SC', sans-serif" fill="rgba(255, 250, 244, 0.78)">
    记录技术、阅读与生活，也把每一篇文章做成自己的入口。
  </text>

  <g opacity="0.92">
    <rect x="126" y="780" width="196" height="2" fill="#fff0cc"/>
    <text x="126" y="820" font-size="23" font-family="'Avenir Next', 'PingFang SC', sans-serif" fill="#fffaf4">
      bob0912.github.io
    </text>
  </g>
</svg>