<svg width="1280" height="720" viewBox="0 0 1280 720" fill="none" xmlns="http://www.w3.org/2000/svg">
  <defs>
    <linearGradient id="bg" x1="94" y1="67" x2="1128" y2="650" gradientUnits="userSpaceOnUse">
      <stop stop-color="#071827"/>
      <stop offset="0.48" stop-color="#0E4D58"/>
      <stop offset="1" stop-color="#1B8A79"/>
    </linearGradient>
    <linearGradient id="line" x1="160" y1="123" x2="1080" y2="586" gradientUnits="userSpaceOnUse">
      <stop stop-color="#21D4FD"/>
      <stop offset="1" stop-color="#35F2BD"/>
    </linearGradient>
    <filter id="glow" x="-40%" y="-40%" width="180%" height="180%" color-interpolation-filters="sRGB">
      <feGaussianBlur stdDeviation="14" result="blur"/>
      <feColorMatrix in="blur" type="matrix" values="0 0 0 0 0.129 0 0 0 0 0.831 0 0 0 0 0.992 0 0 0 0.65 0"/>
      <feBlend in="SourceGraphic"/>
    </filter>
    <pattern id="grid" width="64" height="64" patternUnits="userSpaceOnUse">
      <path d="M64 0H0V64" stroke="white" stroke-opacity="0.08" stroke-width="1"/>
    </pattern>
  </defs>
  <rect width="1280" height="720" rx="36" fill="url(#bg)"/>
  <rect width="1280" height="720" fill="url(#grid)"/>
  <circle cx="1000" cy="126" r="180" fill="#21D4FD" fill-opacity="0.13"/>
  <circle cx="216" cy="604" r="220" fill="#35F2BD" fill-opacity="0.11"/>
  <path d="M158 238C284 158 385 178 512 250C658 333 776 305 910 226C1000 173 1080 166 1162 204" stroke="url(#line)" stroke-width="3" stroke-linecap="round" filter="url(#glow)"/>
  <path d="M160 455C300 388 421 402 548 472C674 542 806 526 940 448C1031 395 1100 384 1164 408" stroke="white" stroke-opacity="0.24" stroke-width="2" stroke-linecap="round"/>
  <g opacity="0.88">
    <rect x="116" y="120" width="1048" height="86" rx="24" fill="white" fill-opacity="0.1" stroke="white" stroke-opacity="0.16"/>
    <circle cx="162" cy="163" r="18" fill="#35F2BD"/>
    <rect x="202" y="149" width="176" height="13" rx="6.5" fill="white" fill-opacity="0.9"/>
    <rect x="764" y="149" width="70" height="13" rx="6.5" fill="white" fill-opacity="0.84"/>
    <rect x="856" y="149" width="70" height="13" rx="6.5" fill="white" fill-opacity="0.62"/>
    <rect x="948" y="149" width="70" height="13" rx="6.5" fill="white" fill-opacity="0.62"/>
    <rect x="1040" y="149" width="70" height="13" rx="6.5" fill="white" fill-opacity="0.62"/>
  </g>
  <g>
    <rect x="154" y="288" width="318" height="230" rx="28" fill="white" fill-opacity="0.12" stroke="white" stroke-opacity="0.16"/>
    <rect x="190" y="326" width="210" height="18" rx="9" fill="#F8FBFF"/>
    <rect x="190" y="366" width="246" height="10" rx="5" fill="white" fill-opacity="0.56"/>
    <rect x="190" y="392" width="190" height="10" rx="5" fill="white" fill-opacity="0.42"/>
    <rect x="190" y="448" width="96" height="30" rx="15" fill="#21D4FD" fill-opacity="0.26"/>
  </g>
  <g>
    <rect x="524" y="288" width="318" height="230" rx="28" fill="white" fill-opacity="0.15" stroke="#35F2BD" stroke-opacity="0.26"/>
    <rect x="560" y="326" width="190" height="18" rx="9" fill="#F8FBFF"/>
    <rect x="560" y="366" width="248" height="10" rx="5" fill="white" fill-opacity="0.58"/>
    <rect x="560" y="392" width="172" height="10" rx="5" fill="white" fill-opacity="0.42"/>
    <rect x="560" y="448" width="112" height="30" rx="15" fill="#35F2BD" fill-opacity="0.24"/>
  </g>
  <g>
    <rect x="894" y="288" width="232" height="230" rx="28" fill="white" fill-opacity="0.11" stroke="white" stroke-opacity="0.14"/>
    <circle cx="1010" cy="354" r="42" fill="#35F2BD" fill-opacity="0.75"/>
    <rect x="950" y="428" width="120" height="12" rx="6" fill="white" fill-opacity="0.88"/>
    <rect x="932" y="462" width="156" height="10" rx="5" fill="white" fill-opacity="0.44"/>
  </g>
  <text x="154" y="610" fill="#F8FBFF" font-family="PingFang SC, Microsoft YaHei, sans-serif" font-size="46" font-weight="800">把博客重新修了一遍</text>
  <text x="156" y="654" fill="#D8F7FF" font-family="PingFang SC, Microsoft YaHei, sans-serif" font-size="22">从能用，到更愿意打开</text>
</svg>
