<?xml version="1.0" encoding="UTF-8"?>
<svg xmlns="http://www.w3.org/2000/svg" width="1600" height="900" viewBox="0 0 1600 900" fill="none">
  <defs>
    <linearGradient id="bg" x1="70" y1="62" x2="1518" y2="844" gradientUnits="userSpaceOnUse">
      <stop stop-color="#0e3b57"/>
      <stop offset="0.55" stop-color="#0d766e"/>
      <stop offset="1" stop-color="#7fd7c9"/>
    </linearGradient>
    <radialGradient id="glowA" cx="0" cy="0" r="1" gradientUnits="userSpaceOnUse" gradientTransform="translate(976 198) rotate(51) scale(321 263.21999999999997)">
      <stop stop-color="rgba(255,255,255,0.44)"/>
      <stop offset="1" stop-color="rgba(255,255,255,0)"/>
    </radialGradient>
    <radialGradient id="glowB" cx="0" cy="0" r="1" gradientUnits="userSpaceOnUse" gradientTransform="translate(1390 764) rotate(180) scale(440 300)">
      <stop stop-color="rgba(8,12,16,0.28)"/>
      <stop offset="1" stop-color="rgba(8,12,16,0)"/>
    </radialGradient>
    <filter id="shadow" x="0" y="0" width="1600" height="900" filterUnits="userSpaceOnUse">
      <feDropShadow dx="0" dy="24" stdDeviation="36" flood-color="rgba(5, 12, 18, 0.24)"/>
    </filter>
  </defs>

  <rect width="1600" height="900" rx="44" fill="url(#bg)"/>
  <rect width="1600" height="900" rx="44" fill="url(#glowA)"/>
  <rect width="1600" height="900" rx="44" fill="url(#glowB)"/>

  <g opacity="0.16">
    <path d="M-42 686C161 554 313 550 451 618c126 62 248 61 388-6 164-79 296-86 425-29 128 58 255 59 378-5V900H-42V686z" fill="rgba(255, 210, 138, 0.2)"/>
    <path d="M-10 741C145 653 289 646 404 694c140 59 268 56 401-16 160-86 327-98 495-30 110 44 214 49 320 13V900H-10V741z" fill="rgba(255,255,255,0.08)"/>
  </g>

  <g opacity="0.12">
    <path d="M104 0V900" stroke="white" stroke-width="1"/><path d="M312 0V900" stroke="white" stroke-width="1"/><path d="M520 0V900" stroke="white" stroke-width="1"/><path d="M728 0V900" stroke="white" stroke-width="1"/><path d="M936 0V900" stroke="white" stroke-width="1"/><path d="M1144 0V900" stroke="white" stroke-width="1"/><path d="M1352 0V900" stroke="white" stroke-width="1"/>
    <path d="M0 132H1600" stroke="white" stroke-width="1"/><path d="M0 272H1600" stroke="white" stroke-width="1"/><path d="M0 412H1600" stroke="white" stroke-width="1"/><path d="M0 552H1600" stroke="white" stroke-width="1"/><path d="M0 692H1600" stroke="white" stroke-width="1"/>
  </g>

  <g filter="url(#shadow)">
    <rect x="90" y="116" width="744" height="624" rx="38" fill="rgba(15, 16, 22, 0.18)"/>
    <rect x="90" y="116" width="744" height="624" rx="38" stroke="rgba(255,255,255,0.12)"/>
  </g>

  <g transform="translate(0 0) rotate(-8 1204 436)">
    <circle cx="1236" cy="338" r="175" fill="rgba(255,255,255,0.08)"/>
    <circle cx="1126" cy="484" r="152" fill="rgba(255,255,255,0.05)"/>
  </g>

  
      <g opacity="0.18">
        <path d="M1125 248c-92 82-143 177-154 288" stroke="#ffd28a" stroke-width="4" stroke-linecap="round" fill="none"/>
        <path d="M1270 264c62 55 103 119 123 194" stroke="#ffd28a" stroke-width="4" stroke-linecap="round" fill="none"/>
        <path d="M1052 340h290" stroke="rgba(255, 210, 138, 0.2)" stroke-width="14" stroke-linecap="round"/>
        <path d="M1078 394h244" stroke="rgba(255, 210, 138, 0.2)" stroke-width="14" stroke-linecap="round"/>
        <path d="M1106 448h194" stroke="rgba(255, 210, 138, 0.2)" stroke-width="14" stroke-linecap="round"/>
      </g>
      <g opacity="0.16">
        <path d="M1018 265l-48 73 48 73" stroke="#f8fbff" stroke-width="10" stroke-linecap="round" stroke-linejoin="round" fill="none"/>
        <path d="M1386 265l48 73-48 73" stroke="#f8fbff" stroke-width="10" stroke-linecap="round" stroke-linejoin="round" fill="none"/>
        <path d="M1204 243l-37 189" stroke="#f8fbff" stroke-width="10" stroke-linecap="round"/>
      </g>
    

  <g>
    <rect x="126" y="152" rx="16" ry="16" width="272" height="44" fill="rgba(255, 255, 255, 0.12)"/>
    <text x="150" y="180" font-size="21" font-family="'Avenir Next', 'PingFang SC', sans-serif" fill="rgba(248, 251, 255, 0.78)">技术 / 编程</text>
  </g>

  <text x="126" y="350" font-size="74" font-weight="700" letter-spacing="1.2" font-family="'PingFang SC', 'Microsoft YaHei', sans-serif" fill="#f8fbff">
    <tspan x="126" y="350">Java：让我们来一起面向对象</tspan>
  </text>

  <text x="126" y="668" font-size="28" font-family="'Avenir Next', 'PingFang SC', sans-serif" fill="rgba(248, 251, 255, 0.78)">
    编程 · Java
  </text>
  <text x="126" y="730" font-size="24" font-family="'Avenir Next', 'PingFang SC', sans-serif" fill="rgba(248, 251, 255, 0.78)">
    记录技术、阅读与生活，也把每一篇文章做成自己的入口。
  </text>

  <g opacity="0.92">
    <rect x="126" y="780" width="196" height="2" fill="#ffd28a"/>
    <text x="126" y="820" font-size="23" font-family="'Avenir Next', 'PingFang SC', sans-serif" fill="#f8fbff">
      bob0912.github.io
    </text>
  </g>
</svg>