<?xml version="1.0" encoding="UTF-8"?>
<svg xmlns="http://www.w3.org/2000/svg" width="2000" height="1200" viewBox="0 0 2000 1200" fill="none">
  <defs>
    <linearGradient id="hero" x1="120" y1="102" x2="1822" y2="1098" gradientUnits="userSpaceOnUse">
      <stop stop-color="#21485f"/>
      <stop offset="0.48" stop-color="#0d766e"/>
      <stop offset="1" stop-color="#da8c5c"/>
    </linearGradient>
    <radialGradient id="heroGlow" cx="0" cy="0" r="1" gradientUnits="userSpaceOnUse" gradientTransform="translate(1462 242) rotate(170) scale(462 292)">
      <stop stop-color="rgba(255,255,255,0.34)"/>
      <stop offset="1" stop-color="rgba(255,255,255,0)"/>
    </radialGradient>
  </defs>
  <rect width="2000" height="1200" fill="url(#hero)"/>
  <rect width="2000" height="1200" fill="url(#heroGlow)"/>
  <g opacity="0.16">
    <path d="M0 728c219-102 432-132 640-84 177 40 349 40 519-28 250-100 510-117 841-16V1200H0V728z" fill="white"/>
    <path d="M0 840c216-91 433-112 643-63 172 41 341 37 514-29 245-93 515-104 843-7v459H0V840z" fill="rgba(9, 20, 22, 0.12)"/>
  </g>
  <g opacity="0.12" stroke="white">
    <path d="M164 0V1200"/><path d="M396 0V1200"/><path d="M628 0V1200"/><path d="M860 0V1200"/><path d="M1092 0V1200"/><path d="M1324 0V1200"/><path d="M1556 0V1200"/><path d="M1788 0V1200"/>
    <path d="M0 168H2000"/><path d="M0 348H2000"/><path d="M0 528H2000"/><path d="M0 708H2000"/><path d="M0 888H2000"/>
  </g>
  <g opacity="0.24">
    <circle cx="1440" cy="278" r="142" fill="rgba(255,255,255,0.14)"/>
    <circle cx="1298" cy="408" r="196" fill="rgba(255,255,255,0.07)"/>
    <rect x="1186" y="254" width="426" height="254" rx="40" fill="rgba(255,255,255,0.12)"/>
  </g>
</svg>