<?xml version="1.0" encoding="UTF-8"?>
<svg xmlns="http://www.w3.org/2000/svg" width="2200" height="1800" viewBox="0 0 2200 1800" fill="none">
  <defs>
    <linearGradient id="bg" x1="122" y1="98" x2="2018" y2="1738" gradientUnits="userSpaceOnUse">
      <stop stop-color="#f4ece0"/>
      <stop offset="0.42" stop-color="#f0e5d6"/>
      <stop offset="1" stop-color="#ebddd0"/>
    </linearGradient>
    <radialGradient id="tealGlow" cx="0" cy="0" r="1" gradientUnits="userSpaceOnUse" gradientTransform="translate(402 288) rotate(34) scale(480 360)">
      <stop stop-color="rgba(13, 118, 110, 0.22)"/>
      <stop offset="1" stop-color="rgba(13, 118, 110, 0)"/>
    </radialGradient>
    <radialGradient id="orangeGlow" cx="0" cy="0" r="1" gradientUnits="userSpaceOnUse" gradientTransform="translate(1776 264) rotate(180) scale(460 340)">
      <stop stop-color="rgba(197, 106, 61, 0.18)"/>
      <stop offset="1" stop-color="rgba(197, 106, 61, 0)"/>
    </radialGradient>
  </defs>

  <rect width="2200" height="1800" fill="url(#bg)"/>
  <rect width="2200" height="1800" fill="url(#tealGlow)"/>
  <rect width="2200" height="1800" fill="url(#orangeGlow)"/>

  <g opacity="0.26">
    <path d="M0 496C192 378 398 334 617 388c197 47 347 49 514-19 213-87 432-97 655-20 146 50 286 57 414 18v455H0V496z" fill="#ffffff"/>
    <path d="M0 672c172-83 346-109 531-73 149 29 313 34 474-28 218-84 450-107 695-38 154 44 321 58 500 4v488H0V672z" fill="rgba(13, 118, 110, 0.07)"/>
  </g>

  <g opacity="0.18" stroke="#9c8b7d">
    <path d="M156 0V1800" stroke-width="1"/><path d="M388 0V1800" stroke-width="1"/><path d="M620 0V1800" stroke-width="1"/><path d="M852 0V1800" stroke-width="1"/><path d="M1084 0V1800" stroke-width="1"/><path d="M1316 0V1800" stroke-width="1"/><path d="M1548 0V1800" stroke-width="1"/><path d="M1780 0V1800" stroke-width="1"/><path d="M2012 0V1800" stroke-width="1"/>
    <path d="M0 182H2200" stroke-width="1"/><path d="M0 400H2200" stroke-width="1"/><path d="M0 618H2200" stroke-width="1"/><path d="M0 836H2200" stroke-width="1"/><path d="M0 1054H2200" stroke-width="1"/><path d="M0 1272H2200" stroke-width="1"/><path d="M0 1490H2200" stroke-width="1"/>
  </g>

  <g opacity="0.22">
    <rect x="240" y="242" width="338" height="236" rx="34" fill="rgba(255,255,255,0.45)"/>
    <rect x="1626" y="308" width="322" height="214" rx="34" fill="rgba(255,255,255,0.36)"/>
    <rect x="1506" y="1116" width="368" height="220" rx="34" fill="rgba(255,255,255,0.42)"/>
    <path d="M320 308h192M320 366h146M1712 382h168M1712 440h116M1582 1188h220M1582 1244h162" stroke="#8aa7a4" stroke-width="14" stroke-linecap="round"/>
  </g>

  <g opacity="0.12" stroke="#0d766e" stroke-width="4" stroke-linecap="round" stroke-linejoin="round">
    <path d="M1216 286l-54 78 54 78"/>
    <path d="M1438 286l54 78-54 78"/>
    <path d="M1324 248l-44 233"/>
    <path d="M716 1218c68-139 189-228 336-228 73 0 146 25 207 72-57 109-150 193-270 240-111 44-229 50-339 18 24-41 45-76 66-102z"/>
  </g>
</svg>